<svg width="41" height="40" viewBox="0 0 41 40" fill="none" xmlns="http://www.w3.org/2000/svg">
<path d="M37.3749 21.4062C37.0991 24.6125 35.9133 27.6734 33.9569 30.2287C32.0006 32.784 29.3552 34.7274 26.3318 35.8303C23.3085 36.9331 20.0331 37.1496 16.891 36.4542C13.7488 35.7588 10.8706 34.1804 8.59501 31.9048C6.31941 29.6292 4.74105 26.751 4.04565 23.6089C3.35024 20.4667 3.56672 17.1913 4.66959 14.168C5.77247 11.1447 7.71588 8.49925 10.2712 6.54292C12.8265 4.58659 15.8873 3.40075 19.0937 3.12491C19.591 3.08347 20.0843 3.24127 20.4653 3.5636C20.8462 3.88593 21.0835 4.34638 21.1249 4.84366C21.1664 5.34094 21.0086 5.83432 20.6862 6.21525C20.3639 6.59619 19.9035 6.83347 19.4062 6.87491C16.9114 7.08886 14.5297 8.01094 12.5413 9.53266C10.5528 11.0544 9.04044 13.1124 8.18204 15.4646C7.32363 17.8167 7.15495 20.3651 7.69585 22.8099C8.23674 25.2547 9.4647 27.4941 11.2352 29.2646C13.0057 31.0352 15.2452 32.2631 17.6899 32.804C20.1347 33.3449 22.6831 33.1762 25.0353 32.3178C27.3874 31.4594 29.4455 29.947 30.9672 27.9586C32.4889 25.9701 33.411 23.5884 33.6249 21.0937C33.6455 20.8474 33.7143 20.6077 33.8275 20.388C33.9406 20.1684 34.096 19.9732 34.2846 19.8136C34.4732 19.654 34.6914 19.5331 34.9268 19.4578C35.1621 19.3826 35.41 19.3544 35.6562 19.3749C35.9024 19.3954 36.1422 19.4642 36.3618 19.5774C36.5815 19.6906 36.7766 19.846 36.9362 20.0346C37.0958 20.2232 37.2167 20.4414 37.292 20.6767C37.3673 20.9121 37.3955 21.1599 37.3749 21.4062ZM18.6249 11.8749V19.9999C18.6249 20.4972 18.8225 20.9741 19.1741 21.3257C19.5257 21.6774 20.0027 21.8749 20.4999 21.8749H28.6249C29.1222 21.8749 29.5991 21.6774 29.9508 21.3257C30.3024 20.9741 30.4999 20.4972 30.4999 19.9999C30.4999 19.5026 30.3024 19.0257 29.9508 18.6741C29.5991 18.3225 29.1222 18.1249 28.6249 18.1249H22.3749V11.8749C22.3749 11.3776 22.1774 10.9007 21.8258 10.5491C21.4741 10.1975 20.9972 9.99991 20.4999 9.99991C20.0027 9.99991 19.5257 10.1975 19.1741 10.5491C18.8225 10.9007 18.6249 11.3776 18.6249 11.8749ZM32.9999 14.9999C33.4944 14.9999 33.9777 14.8533 34.3889 14.5786C34.8 14.3039 35.1204 13.9134 35.3096 13.4566C35.4989 12.9998 35.5484 12.4971 35.4519 12.0122C35.3554 11.5272 35.1173 11.0818 34.7677 10.7321C34.4181 10.3825 33.9726 10.1444 33.4877 10.0479C33.0027 9.95149 32.5 10.001 32.0432 10.1902C31.5864 10.3794 31.196 10.6999 30.9213 11.111C30.6466 11.5221 30.4999 12.0055 30.4999 12.4999C30.4999 13.163 30.7633 13.7988 31.2322 14.2677C31.701 14.7365 32.3369 14.9999 32.9999 14.9999ZM27.9999 9.99991C28.4944 9.99991 28.9777 9.85329 29.3889 9.57859C29.8 9.30388 30.1204 8.91344 30.3096 8.45662C30.4989 7.99981 30.5484 7.49714 30.4519 7.01219C30.3554 6.52723 30.1173 6.08178 29.7677 5.73214C29.4181 5.38251 28.9726 5.14441 28.4877 5.04795C28.0027 4.95149 27.5 5.00099 27.0432 5.19021C26.5864 5.37943 26.196 5.69986 25.9213 6.11099C25.6466 6.52211 25.4999 7.00546 25.4999 7.49991C25.4999 8.16295 25.7633 8.79884 26.2322 9.26768C26.701 9.73652 27.3369 9.99991 27.9999 9.99991Z" fill="white"/>
</svg>
