<svg width="41" height="40" viewBox="0 0 41 40" fill="none" xmlns="http://www.w3.org/2000/svg">
<g clip-path="url(#clip0_239_151)">
<path d="M38.625 18.125V13.75C38.625 12.9212 38.2958 12.1263 37.7097 11.5403C37.1237 10.9542 36.3288 10.625 35.5 10.625H33V10C33 9.1712 32.6708 8.37634 32.0847 7.79029C31.4987 7.20424 30.7038 6.875 29.875 6.875H26.125C25.2962 6.875 24.5013 7.20424 23.9153 7.79029C23.3292 8.37634 23 9.1712 23 10V18.125H18V10C18 9.1712 17.6708 8.37634 17.0847 7.79029C16.4987 7.20424 15.7038 6.875 14.875 6.875H11.125C10.2962 6.875 9.50134 7.20424 8.91529 7.79029C8.32924 8.37634 8 9.1712 8 10V10.625H5.5C4.6712 10.625 3.87634 10.9542 3.29029 11.5403C2.70424 12.1263 2.375 12.9212 2.375 13.75V18.125C1.87772 18.125 1.40081 18.3225 1.04917 18.6742C0.697544 19.0258 0.5 19.5027 0.5 20C0.5 20.4973 0.697544 20.9742 1.04917 21.3258C1.40081 21.6775 1.87772 21.875 2.375 21.875V26.25C2.375 27.0788 2.70424 27.8737 3.29029 28.4597C3.87634 29.0458 4.6712 29.375 5.5 29.375H8V30C8 30.8288 8.32924 31.6237 8.91529 32.2097C9.50134 32.7958 10.2962 33.125 11.125 33.125H14.875C15.7038 33.125 16.4987 32.7958 17.0847 32.2097C17.6708 31.6237 18 30.8288 18 30V21.875H23V30C23 30.8288 23.3292 31.6237 23.9153 32.2097C24.5013 32.7958 25.2962 33.125 26.125 33.125H29.875C30.7038 33.125 31.4987 32.7958 32.0847 32.2097C32.6708 31.6237 33 30.8288 33 30V29.375H35.5C36.3288 29.375 37.1237 29.0458 37.7097 28.4597C38.2958 27.8737 38.625 27.0788 38.625 26.25V21.875C39.1223 21.875 39.5992 21.6775 39.9508 21.3258C40.3025 20.9742 40.5 20.4973 40.5 20C40.5 19.5027 40.3025 19.0258 39.9508 18.6742C39.5992 18.3225 39.1223 18.125 38.625 18.125ZM6.125 25.625V14.375H8V25.625H6.125ZM14.25 29.375H11.75V10.625H14.25V29.375ZM29.25 29.375H26.75V10.625H29.25V29.375ZM34.875 25.625H33V14.375H34.875V25.625Z" fill="white"/>
</g>
<defs>
<clipPath id="clip0_239_151">
<rect width="40" height="40" fill="white" transform="translate(0.5)"/>
</clipPath>
</defs>
</svg>
