<svg width="18" height="19" viewBox="0 0 18 19" fill="none" xmlns="http://www.w3.org/2000/svg">
<path d="M15.7845 10.097L10.722 15.1595C10.5634 15.318 10.3485 15.407 10.1243 15.407C9.90013 15.407 9.68515 15.318 9.52664 15.1595C9.36813 15.0009 9.27908 14.786 9.27908 14.5618C9.27908 14.3376 9.36813 14.1227 9.52664 13.9641L13.1484 10.3438H2.8125C2.58872 10.3438 2.37411 10.2549 2.21588 10.0966C2.05764 9.93839 1.96875 9.72378 1.96875 9.5C1.96875 9.27623 2.05764 9.06161 2.21588 8.90338C2.37411 8.74515 2.58872 8.65625 2.8125 8.65625H13.1484L9.52805 5.03375C9.36954 4.87524 9.28049 4.66026 9.28049 4.43609C9.28049 4.21193 9.36954 3.99695 9.52805 3.83844C9.68655 3.67993 9.90154 3.59088 10.1257 3.59088C10.3499 3.59088 10.5649 3.67993 10.7234 3.83844L15.7859 8.90094C15.8645 8.97943 15.9269 9.07269 15.9695 9.17537C16.012 9.27804 16.0338 9.38811 16.0337 9.49924C16.0335 9.61037 16.0115 9.72038 15.9687 9.82296C15.9259 9.92553 15.8633 10.0186 15.7845 10.097Z" fill="white"/>
</svg>
