<svg width="60" height="60" viewBox="0 0 60 60" fill="none" xmlns="http://www.w3.org/2000/svg">
<path d="M25.3125 14.0625C25.3125 14.8042 25.0926 15.5292 24.6805 16.1459C24.2685 16.7626 23.6828 17.2432 22.9976 17.5271C22.3123 17.8109 21.5583 17.8851 20.8309 17.7404C20.1035 17.5958 19.4353 17.2386 18.9109 16.7142C18.3864 16.1897 18.0293 15.5215 17.8846 14.7941C17.7399 14.0667 17.8141 13.3127 18.098 12.6274C18.3818 11.9422 18.8624 11.3565 19.4791 10.9445C20.0958 10.5324 20.8208 10.3125 21.5625 10.3125C22.5571 10.3125 23.5109 10.7076 24.2142 11.4109C24.9174 12.1141 25.3125 13.0679 25.3125 14.0625ZM38.4375 17.8125C39.1792 17.8125 39.9042 17.5926 40.5209 17.1805C41.1376 16.7685 41.6182 16.1828 41.9021 15.4976C42.1859 14.8123 42.2601 14.0583 42.1154 13.3309C41.9708 12.6035 41.6136 11.9353 41.0892 11.4109C40.5647 10.8864 39.8965 10.5293 39.1691 10.3846C38.4417 10.2399 37.6877 10.3141 37.0024 10.598C36.3172 10.8818 35.7315 11.3624 35.3195 11.9791C34.9074 12.5958 34.6875 13.3208 34.6875 14.0625C34.6875 15.0571 35.0826 16.0109 35.7859 16.7142C36.4891 17.4174 37.4429 17.8125 38.4375 17.8125ZM21.5625 26.25C20.8208 26.25 20.0958 26.4699 19.4791 26.882C18.8624 27.294 18.3818 27.8797 18.098 28.5649C17.8141 29.2502 17.7399 30.0042 17.8846 30.7316C18.0293 31.459 18.3864 32.1272 18.9109 32.6517C19.4353 33.1761 20.1035 33.5333 20.8309 33.6779C21.5583 33.8226 22.3123 33.7484 22.9976 33.4646C23.6828 33.1807 24.2685 32.7001 24.6805 32.0834C25.0926 31.4667 25.3125 30.7417 25.3125 30C25.3125 29.0054 24.9174 28.0516 24.2142 27.3484C23.5109 26.6451 22.5571 26.25 21.5625 26.25ZM38.4375 26.25C37.6958 26.25 36.9708 26.4699 36.3541 26.882C35.7374 27.294 35.2568 27.8797 34.973 28.5649C34.6891 29.2502 34.6149 30.0042 34.7596 30.7316C34.9043 31.459 35.2614 32.1272 35.7859 32.6517C36.3103 33.1761 36.9785 33.5333 37.7059 33.6779C38.4333 33.8226 39.1873 33.7484 39.8726 33.4646C40.5578 33.1807 41.1435 32.7001 41.5555 32.0834C41.9676 31.4667 42.1875 30.7417 42.1875 30C42.1875 29.0054 41.7924 28.0516 41.0892 27.3484C40.3859 26.6451 39.4321 26.25 38.4375 26.25ZM21.5625 42.1875C20.8208 42.1875 20.0958 42.4074 19.4791 42.8195C18.8624 43.2315 18.3818 43.8172 18.098 44.5024C17.8141 45.1877 17.7399 45.9417 17.8846 46.6691C18.0293 47.3965 18.3864 48.0647 18.9109 48.5892C19.4353 49.1136 20.1035 49.4708 20.8309 49.6154C21.5583 49.7601 22.3123 49.6859 22.9976 49.4021C23.6828 49.1182 24.2685 48.6376 24.6805 48.0209C25.0926 47.4042 25.3125 46.6792 25.3125 45.9375C25.3125 44.9429 24.9174 43.9891 24.2142 43.2859C23.5109 42.5826 22.5571 42.1875 21.5625 42.1875ZM38.4375 42.1875C37.6958 42.1875 36.9708 42.4074 36.3541 42.8195C35.7374 43.2315 35.2568 43.8172 34.973 44.5024C34.6891 45.1877 34.6149 45.9417 34.7596 46.6691C34.9043 47.3965 35.2614 48.0647 35.7859 48.5892C36.3103 49.1136 36.9785 49.4708 37.7059 49.6154C38.4333 49.7601 39.1873 49.6859 39.8726 49.4021C40.5578 49.1182 41.1435 48.6376 41.5555 48.0209C41.9676 47.4042 42.1875 46.6792 42.1875 45.9375C42.1875 44.9429 41.7924 43.9891 41.0892 43.2859C40.3859 42.5826 39.4321 42.1875 38.4375 42.1875Z" fill="white"/>
</svg>
