<svg width="30" height="30" viewBox="0 0 30 30" fill="none" xmlns="http://www.w3.org/2000/svg">
<path d="M24.375 6.09375H21.3773L19.9219 3.90703C19.7932 3.71423 19.6189 3.55621 19.4145 3.44703C19.21 3.33786 18.9818 3.28091 18.75 3.28125H11.25C11.0182 3.28091 10.79 3.33786 10.5855 3.44703C10.3811 3.55621 10.2068 3.71423 10.0781 3.90703L8.62148 6.09375H5.625C4.75476 6.09375 3.92016 6.43945 3.30481 7.05481C2.68945 7.67016 2.34375 8.50476 2.34375 9.375V22.5C2.34375 23.3702 2.68945 24.2048 3.30481 24.8202C3.92016 25.4356 4.75476 25.7813 5.625 25.7813H24.375C24.8059 25.7813 25.2326 25.6964 25.6307 25.5315C26.0288 25.3666 26.3905 25.1249 26.6952 24.8202C26.9999 24.5155 27.2416 24.1538 27.4065 23.7557C27.5714 23.3576 27.6562 22.9309 27.6562 22.5V9.375C27.6562 8.9441 27.5714 8.51742 27.4065 8.11932C27.2416 7.72122 26.9999 7.3595 26.6952 7.05481C26.3905 6.75012 26.0288 6.50842 25.6307 6.34352C25.2326 6.17862 24.8059 6.09375 24.375 6.09375ZM24.8438 22.5C24.8438 22.6243 24.7944 22.7436 24.7065 22.8315C24.6185 22.9194 24.4993 22.9688 24.375 22.9688H5.625C5.50068 22.9688 5.38145 22.9194 5.29354 22.8315C5.20564 22.7436 5.15625 22.6243 5.15625 22.5V9.375C5.15625 9.25068 5.20564 9.13145 5.29354 9.04354C5.38145 8.95564 5.50068 8.90625 5.625 8.90625H9.375C9.60678 8.90659 9.83504 8.84965 10.0395 8.74047C10.2439 8.63129 10.4182 8.47327 10.5469 8.28047L12.0023 6.09375H17.9965L19.4531 8.28047C19.5818 8.47327 19.7561 8.63129 19.9605 8.74047C20.165 8.84965 20.3932 8.90659 20.625 8.90625H24.375C24.4993 8.90625 24.6185 8.95564 24.7065 9.04354C24.7944 9.13145 24.8438 9.25068 24.8438 9.375V22.5ZM21.0938 11.7188V14.0625C21.0938 14.4355 20.9456 14.7931 20.6819 15.0569C20.4181 15.3206 20.0605 15.4688 19.6875 15.4688H17.3438C17.0561 15.4684 16.7755 15.3798 16.5398 15.215C16.3041 15.0502 16.1246 14.8171 16.0255 14.5471C15.9263 14.2771 15.9124 13.9832 15.9855 13.705C16.0586 13.4268 16.2153 13.1778 16.4344 12.9914C15.8929 12.7287 15.2896 12.6196 14.6904 12.6761C14.0912 12.7325 13.5189 12.9522 13.0359 13.3113C12.7377 13.5359 12.3625 13.6328 11.9929 13.5807C11.6232 13.5286 11.2894 13.3318 11.0648 13.0336C10.8403 12.7354 10.7434 12.3602 10.7955 11.9905C10.8476 11.6209 11.0444 11.2871 11.3426 11.0625C12.3745 10.295 13.6218 9.87161 14.9078 9.85247C16.1937 9.83333 17.4531 10.2194 18.5074 10.9559C18.6723 10.7014 18.9151 10.5071 19.1994 10.4019C19.4838 10.2966 19.7945 10.2861 20.0854 10.3719C20.3762 10.4577 20.6315 10.6352 20.8132 10.8779C20.9949 11.1206 21.0933 11.4155 21.0938 11.7188ZM18.9363 17.9063C19.1604 18.2043 19.2568 18.5792 19.2045 18.9484C19.1522 19.3176 18.9554 19.6509 18.6574 19.875C17.6052 20.6642 16.3247 21.0895 15.0094 21.0867C13.7518 21.0874 12.5244 20.7012 11.4938 19.9805C11.3291 20.2354 11.0864 20.4302 10.8019 20.5358C10.5175 20.6414 10.2065 20.6522 9.91537 20.5665C9.62428 20.4808 9.36871 20.3032 9.18683 20.0603C9.00496 19.8174 8.90653 19.5222 8.90625 19.2188V16.875C8.90625 16.502 9.05441 16.1444 9.31813 15.8806C9.58185 15.6169 9.93954 15.4688 10.3125 15.4688H12.6562C12.9439 15.4691 13.2245 15.5577 13.4602 15.7225C13.6959 15.8873 13.8754 16.1204 13.9745 16.3904C14.0737 16.6604 14.0876 16.9543 14.0145 17.2325C13.9414 17.5107 13.7847 17.7597 13.5656 17.9461C14.1071 18.2088 14.7104 18.3179 15.3096 18.2614C15.9088 18.205 16.4811 17.9853 16.9641 17.6262C17.1118 17.5148 17.2802 17.4336 17.4593 17.3874C17.6385 17.3412 17.8251 17.3308 18.0083 17.3568C18.1916 17.3828 18.3679 17.4447 18.5271 17.539C18.6863 17.6333 18.8254 17.7581 18.9363 17.9063Z" fill="white"/>
</svg>
