<svg width="20" height="21" viewBox="0 0 20 21" fill="none" xmlns="http://www.w3.org/2000/svg">
<path d="M17.9797 6.01094L14.4891 2.51953C14.344 2.37437 14.1717 2.25922 13.9821 2.18066C13.7925 2.1021 13.5892 2.06166 13.384 2.06166C13.1787 2.06166 12.9755 2.1021 12.7859 2.18066C12.5963 2.25922 12.424 2.37437 12.2789 2.51953L2.64532 12.1539C2.4997 12.2986 2.38424 12.4707 2.30565 12.6603C2.22707 12.85 2.18691 13.0533 2.18751 13.2586V16.75C2.18751 17.1644 2.35213 17.5618 2.64515 17.8549C2.93818 18.1479 3.33561 18.3125 3.75001 18.3125H7.24141C7.44668 18.3131 7.65001 18.2729 7.83963 18.1943C8.02926 18.1157 8.2014 18.0003 8.3461 17.8547L17.9797 8.22031C18.2726 7.9273 18.4372 7.52994 18.4372 7.11562C18.4372 6.7013 18.2726 6.30395 17.9797 6.01094ZM7.10938 16.4375H4.06251V13.3906L10.625 6.82812L13.6719 9.875L7.10938 16.4375ZM15 8.54687L11.9531 5.5L13.3859 4.06719L16.4328 7.11406L15 8.54687Z" fill="white"/>
</svg>
