<svg width="60" height="60" viewBox="0 0 60 60" fill="none" xmlns="http://www.w3.org/2000/svg">
<path d="M53.4375 30C53.4375 30.7459 53.1412 31.4613 52.6137 31.9887C52.0863 32.5162 51.3709 32.8125 50.625 32.8125H32.8125V50.625C32.8125 51.3709 32.5162 52.0863 31.9887 52.6137C31.4613 53.1412 30.7459 53.4375 30 53.4375C29.2541 53.4375 28.5387 53.1412 28.0113 52.6137C27.4838 52.0863 27.1875 51.3709 27.1875 50.625V32.8125H9.375C8.62908 32.8125 7.91371 32.5162 7.38626 31.9887C6.85882 31.4613 6.5625 30.7459 6.5625 30C6.5625 29.2541 6.85882 28.5387 7.38626 28.0113C7.91371 27.4838 8.62908 27.1875 9.375 27.1875H27.1875V9.375C27.1875 8.62908 27.4838 7.91371 28.0113 7.38626C28.5387 6.85882 29.2541 6.5625 30 6.5625C30.7459 6.5625 31.4613 6.85882 31.9887 7.38626C32.5162 7.91371 32.8125 8.62908 32.8125 9.375V27.1875H50.625C51.3709 27.1875 52.0863 27.4838 52.6137 28.0113C53.1412 28.5387 53.4375 29.2541 53.4375 30Z" fill="white"/>
</svg>
