<svg width="40" height="40" viewBox="0 0 40 40" fill="none" xmlns="http://www.w3.org/2000/svg">
<path d="M24.5734 3.31566C24.2581 3.16148 23.9058 3.09893 23.5566 3.13511C23.2075 3.1713 22.8755 3.30477 22.5984 3.52035L11.8562 11.875H5C4.1712 11.875 3.37634 12.2043 2.79029 12.7903C2.20424 13.3764 1.875 14.1712 1.875 15V25C1.875 25.8288 2.20424 26.6237 2.79029 27.2097C3.37634 27.7958 4.1712 28.125 5 28.125H11.8562L22.5984 36.4797C22.8755 36.6953 23.2075 36.8288 23.5567 36.865C23.9058 36.9012 24.2582 36.8387 24.5735 36.6845C24.8889 36.5303 25.1547 36.2907 25.3406 35.9929C25.5264 35.6951 25.625 35.3511 25.625 35V5.00003C25.625 4.64899 25.5264 4.305 25.3405 4.00722C25.1546 3.70944 24.8888 3.46983 24.5734 3.31566ZM5.625 15.625H10.625V24.375H5.625V15.625ZM21.875 31.1657L14.375 25.3328V14.6672L21.875 8.83441V31.1657ZM33.125 20C33.1253 21.6749 32.5141 23.2923 31.4062 24.5485C31.2433 24.7331 31.0456 24.8839 30.8244 24.9922C30.6032 25.1004 30.3629 25.1641 30.1171 25.1795C29.8713 25.1948 29.6249 25.1617 29.392 25.0818C29.159 25.002 28.944 24.877 28.7594 24.7141C28.5747 24.5512 28.4239 24.3535 28.3157 24.1323C28.2074 23.9111 28.1438 23.6707 28.1284 23.425C28.113 23.1792 28.1462 22.9328 28.226 22.6998C28.3059 22.4668 28.4308 22.2519 28.5938 22.0672C29.096 21.4966 29.3731 20.7625 29.3731 20.0024C29.3731 19.2422 29.096 18.5081 28.5938 17.9375C28.2816 17.5623 28.128 17.0802 28.1656 16.5935C28.2033 16.1069 28.4293 15.6541 28.7955 15.3314C29.1617 15.0087 29.6393 14.8416 30.1268 14.8655C30.6144 14.8894 31.0733 15.1025 31.4062 15.4594C32.5131 16.7131 33.1242 18.3277 33.125 20ZM39.375 20C39.3769 23.2288 38.1868 26.3447 36.0328 28.75C35.7013 29.1207 35.2361 29.3445 34.7396 29.3722C34.243 29.3999 33.7558 29.2292 33.3852 28.8977C33.0145 28.5662 32.7907 28.101 32.763 27.6044C32.7353 27.1079 32.906 26.6207 33.2375 26.25C34.7749 24.5312 35.6248 22.3061 35.6248 20C35.6248 17.694 34.7749 15.4689 33.2375 13.75C33.0666 13.5677 32.9339 13.3531 32.8472 13.1188C32.7604 12.8845 32.7214 12.6352 32.7324 12.3855C32.7434 12.1359 32.8041 11.891 32.9111 11.6652C33.018 11.4394 33.169 11.2372 33.3552 11.0706C33.5414 10.904 33.7591 10.7763 33.9953 10.6949C34.2316 10.6136 34.4817 10.5803 34.731 10.597C34.9803 10.6138 35.2238 10.6801 35.4471 10.7923C35.6703 10.9044 35.869 11.06 36.0313 11.25C38.1858 13.6551 39.3765 16.771 39.375 20Z" fill="white"/>
</svg>
