<svg width="40" height="40" viewBox="0 0 40 40" fill="none" xmlns="http://www.w3.org/2000/svg">
<path d="M21.875 5V10C21.875 10.4973 21.6775 10.9742 21.3258 11.3258C20.9742 11.6775 20.4973 11.875 20 11.875C19.5027 11.875 19.0258 11.6775 18.6742 11.3258C18.3225 10.9742 18.125 10.4973 18.125 10V5C18.125 4.50272 18.3225 4.02581 18.6742 3.67417C19.0258 3.32254 19.5027 3.125 20 3.125C20.4973 3.125 20.9742 3.32254 21.3258 3.67417C21.6775 4.02581 21.875 4.50272 21.875 5ZM27.0703 14.8047C27.3167 14.8047 27.5607 14.7561 27.7883 14.6617C28.016 14.5673 28.2227 14.429 28.3969 14.2547L31.9328 10.7187C32.2851 10.3665 32.4829 9.88877 32.4829 9.39062C32.4829 8.89248 32.2851 8.41474 31.9328 8.0625C31.5806 7.71026 31.1028 7.51237 30.6047 7.51237C30.1065 7.51237 29.6288 7.71026 29.2766 8.0625L25.7453 11.6031C25.4829 11.8653 25.3041 12.1993 25.2316 12.5631C25.1591 12.9269 25.1961 13.304 25.3379 13.6467C25.4798 13.9894 25.7201 14.2824 26.0284 14.4885C26.3368 14.6946 26.6994 14.8047 27.0703 14.8047ZM35 18.125H30C29.5027 18.125 29.0258 18.3225 28.6742 18.6742C28.3225 19.0258 28.125 19.5027 28.125 20C28.125 20.4973 28.3225 20.9742 28.6742 21.3258C29.0258 21.6775 29.5027 21.875 30 21.875H35C35.4973 21.875 35.9742 21.6775 36.3258 21.3258C36.6775 20.9742 36.875 20.4973 36.875 20C36.875 19.5027 36.6775 19.0258 36.3258 18.6742C35.9742 18.3225 35.4973 18.125 35 18.125ZM28.3969 25.7453C28.2225 25.5709 28.0154 25.4325 27.7875 25.3382C27.5596 25.2438 27.3154 25.1952 27.0688 25.1952C26.8221 25.1952 26.5779 25.2438 26.35 25.3382C26.1221 25.4325 25.915 25.5709 25.7406 25.7453C25.5662 25.9197 25.4279 26.1268 25.3335 26.3547C25.2391 26.5825 25.1905 26.8268 25.1905 27.0734C25.1905 27.3201 25.2391 27.5643 25.3335 27.7922C25.4279 28.0201 25.5662 28.2272 25.7406 28.4016L29.2766 31.9375C29.6288 32.2897 30.1065 32.4876 30.6047 32.4876C31.1028 32.4876 31.5806 32.2897 31.9328 31.9375C32.2851 31.5853 32.4829 31.1075 32.4829 30.6094C32.4829 30.1112 32.2851 29.6335 31.9328 29.2812L28.3969 25.7453ZM20 28.125C19.5027 28.125 19.0258 28.3225 18.6742 28.6742C18.3225 29.0258 18.125 29.5027 18.125 30V35C18.125 35.4973 18.3225 35.9742 18.6742 36.3258C19.0258 36.6775 19.5027 36.875 20 36.875C20.4973 36.875 20.9742 36.6775 21.3258 36.3258C21.6775 35.9742 21.875 35.4973 21.875 35V30C21.875 29.5027 21.6775 29.0258 21.3258 28.6742C20.9742 28.3225 20.4973 28.125 20 28.125ZM11.6031 25.7453L8.06719 29.2812C7.71495 29.6335 7.51706 30.1112 7.51706 30.6094C7.51706 31.1075 7.71495 31.5853 8.06719 31.9375C8.41943 32.2897 8.89717 32.4876 9.39531 32.4876C9.89346 32.4876 10.3712 32.2897 10.7234 31.9375L14.2594 28.4016C14.6116 28.0493 14.8095 27.5716 14.8095 27.0734C14.8095 26.5753 14.6116 26.0976 14.2594 25.7453C13.9071 25.3931 13.4294 25.1952 12.9313 25.1952C12.4331 25.1952 11.9554 25.3931 11.6031 25.7453ZM11.875 20C11.875 19.5027 11.6775 19.0258 11.3258 18.6742C10.9742 18.3225 10.4973 18.125 10 18.125H5C4.50272 18.125 4.02581 18.3225 3.67417 18.6742C3.32254 19.0258 3.125 19.5027 3.125 20C3.125 20.4973 3.32254 20.9742 3.67417 21.3258C4.02581 21.6775 4.50272 21.875 5 21.875H10C10.4973 21.875 10.9742 21.6775 11.3258 21.3258C11.6775 20.9742 11.875 20.4973 11.875 20ZM10.7187 8.06719C10.5443 7.89278 10.3373 7.75442 10.1094 7.66003C9.88152 7.56564 9.63728 7.51706 9.39062 7.51706C9.14397 7.51706 8.89973 7.56564 8.67185 7.66003C8.44397 7.75442 8.23691 7.89278 8.0625 8.06719C7.88809 8.2416 7.74974 8.44866 7.65535 8.67654C7.56095 8.90442 7.51237 9.14866 7.51237 9.39531C7.51237 9.64197 7.56095 9.88621 7.65535 10.1141C7.74974 10.342 7.88809 10.549 8.0625 10.7234L11.6031 14.2547C11.9554 14.6069 12.4331 14.8048 12.9313 14.8048C13.4294 14.8048 13.9071 14.6069 14.2594 14.2547C14.6116 13.9024 14.8095 13.4247 14.8095 12.9266C14.8095 12.4284 14.6116 11.9507 14.2594 11.5984L10.7187 8.06719Z" fill="white"/>
</svg>
