<svg width="40" height="40" viewBox="0 0 40 40" fill="none" xmlns="http://www.w3.org/2000/svg">
<path d="M20 3.125C16.6624 3.125 13.3998 4.1147 10.6248 5.96895C7.84968 7.8232 5.68677 10.4587 4.40954 13.5422C3.13231 16.6257 2.79813 20.0187 3.44926 23.2921C4.10038 26.5656 5.70757 29.5724 8.06758 31.9324C10.4276 34.2924 13.4344 35.8996 16.7079 36.5508C19.9813 37.2019 23.3743 36.8677 26.4578 35.5905C29.5413 34.3132 32.1768 32.1503 34.0311 29.3752C35.8853 26.6002 36.875 23.3376 36.875 20C36.87 15.526 35.0906 11.2367 31.927 8.07305C28.7634 4.90945 24.474 3.12996 20 3.125ZM12.4328 30.7141C13.3032 29.5239 14.4421 28.5558 15.757 27.8885C17.0718 27.2211 18.5255 26.8733 20 26.8733C21.4745 26.8733 22.9282 27.2211 24.243 27.8885C25.5579 28.5558 26.6968 29.5239 27.5672 30.7141C25.3556 32.2825 22.7113 33.1249 20 33.1249C17.2887 33.1249 14.6444 32.2825 12.4328 30.7141ZM15.625 18.75C15.625 17.8847 15.8816 17.0388 16.3623 16.3194C16.8431 15.5999 17.5263 15.0392 18.3258 14.708C19.1252 14.3769 20.0049 14.2903 20.8535 14.4591C21.7022 14.6279 22.4817 15.0446 23.0936 15.6564C23.7055 16.2683 24.1221 17.0478 24.2909 17.8965C24.4598 18.7451 24.3731 19.6248 24.042 20.4242C23.7108 21.2237 23.1501 21.9069 22.4306 22.3877C21.7112 22.8684 20.8653 23.125 20 23.125C18.8397 23.125 17.7269 22.6641 16.9064 21.8436C16.0859 21.0231 15.625 19.9103 15.625 18.75ZM30.3125 28.1156C29.0971 26.57 27.5481 25.319 25.7813 24.4563C26.9073 23.3159 27.671 21.868 27.9763 20.2948C28.2815 18.7215 28.1147 17.0931 27.4967 15.6144C26.8788 14.1357 25.8373 12.8727 24.5034 11.9845C23.1695 11.0962 21.6026 10.6222 20 10.6222C18.3974 10.6222 16.8306 11.0962 15.4966 11.9845C14.1627 12.8727 13.1212 14.1357 12.5033 15.6144C11.8853 17.0931 11.7185 18.7215 12.0237 20.2948C12.329 21.868 13.0927 23.3159 14.2188 24.4563C12.4519 25.319 10.9029 26.57 9.68751 28.1156C8.16102 26.1806 7.21023 23.8548 6.94399 21.4045C6.67776 18.9542 7.10683 16.4785 8.18208 14.2607C9.25734 12.043 10.9353 10.1728 13.024 8.86424C15.1126 7.55571 17.5275 6.86172 19.9922 6.86172C22.4569 6.86172 24.8718 7.55571 26.9604 8.86424C29.0491 10.1728 30.727 12.043 31.8023 14.2607C32.8776 16.4785 33.3066 18.9542 33.0404 21.4045C32.7742 23.8548 31.8234 26.1806 30.2969 28.1156H30.3125Z" fill="white"/>
</svg>
