<svg width="40" height="40" viewBox="0 0 40 40" fill="none" xmlns="http://www.w3.org/2000/svg">
<path d="M28.9188 17.8844C29.8203 16.7864 30.3914 15.455 30.5657 14.0451C30.74 12.6352 30.5102 11.2048 29.9032 9.92037C29.2962 8.63595 28.3369 7.55034 27.1369 6.78991C25.9369 6.02948 24.5456 5.6255 23.125 5.625H12.5C12.0027 5.625 11.5258 5.82254 11.1742 6.17417C10.8225 6.52581 10.625 7.00272 10.625 7.5V31.25C10.625 31.7473 10.8225 32.2242 11.1742 32.5758C11.5258 32.9275 12.0027 33.125 12.5 33.125H25C26.8021 33.1242 28.5528 32.5244 29.9767 31.4198C31.4006 30.3153 32.4168 28.7687 32.8656 27.0233C33.3144 25.278 33.1702 23.433 32.4557 21.7786C31.7412 20.1242 30.497 18.7543 28.9188 17.8844ZM14.375 9.375H23.125C24.1196 9.375 25.0734 9.77009 25.7767 10.4733C26.4799 11.1766 26.875 12.1304 26.875 13.125C26.875 14.1196 26.4799 15.0734 25.7767 15.7767C25.0734 16.4799 24.1196 16.875 23.125 16.875H14.375V9.375ZM25 29.375H14.375V20.625H25C26.1603 20.625 27.2731 21.0859 28.0936 21.9064C28.9141 22.7269 29.375 23.8397 29.375 25C29.375 26.1603 28.9141 27.2731 28.0936 28.0936C27.2731 28.9141 26.1603 29.375 25 29.375Z" fill="white"/>
</svg>
