<svg width="40" height="40" viewBox="0 0 40 40" fill="none" xmlns="http://www.w3.org/2000/svg">
<path d="M11.875 10C11.875 9.50272 12.0725 9.02581 12.4242 8.67417C12.7758 8.32254 13.2527 8.125 13.75 8.125H33.75C34.2473 8.125 34.7242 8.32254 35.0758 8.67417C35.4275 9.02581 35.625 9.50272 35.625 10C35.625 10.4973 35.4275 10.9742 35.0758 11.3258C34.7242 11.6775 34.2473 11.875 33.75 11.875H13.75C13.2527 11.875 12.7758 11.6775 12.4242 11.3258C12.0725 10.9742 11.875 10.4973 11.875 10ZM33.75 18.125H13.75C13.2527 18.125 12.7758 18.3225 12.4242 18.6742C12.0725 19.0258 11.875 19.5027 11.875 20C11.875 20.4973 12.0725 20.9742 12.4242 21.3258C12.7758 21.6775 13.2527 21.875 13.75 21.875H33.75C34.2473 21.875 34.7242 21.6775 35.0758 21.3258C35.4275 20.9742 35.625 20.4973 35.625 20C35.625 19.5027 35.4275 19.0258 35.0758 18.6742C34.7242 18.3225 34.2473 18.125 33.75 18.125ZM33.75 28.125H13.75C13.2527 28.125 12.7758 28.3225 12.4242 28.6742C12.0725 29.0258 11.875 29.5027 11.875 30C11.875 30.4973 12.0725 30.9742 12.4242 31.3258C12.7758 31.6775 13.2527 31.875 13.75 31.875H33.75C34.2473 31.875 34.7242 31.6775 35.0758 31.3258C35.4275 30.9742 35.625 30.4973 35.625 30C35.625 29.5027 35.4275 29.0258 35.0758 28.6742C34.7242 28.3225 34.2473 28.125 33.75 28.125ZM6.875 17.5C6.38055 17.5 5.8972 17.6466 5.48608 17.9213C5.07495 18.196 4.75452 18.5865 4.5653 19.0433C4.37608 19.5001 4.32657 20.0028 4.42304 20.4877C4.5195 20.9727 4.7576 21.4181 5.10723 21.7678C5.45687 22.1174 5.90232 22.3555 6.38728 22.452C6.87223 22.5484 7.37489 22.4989 7.83171 22.3097C8.28853 22.1205 8.67897 21.8 8.95368 21.3889C9.22838 20.9778 9.375 20.4945 9.375 20C9.375 19.337 9.11161 18.7011 8.64277 18.2322C8.17393 17.7634 7.53804 17.5 6.875 17.5ZM6.875 7.5C6.38055 7.5 5.8972 7.64662 5.48608 7.92133C5.07495 8.19603 4.75452 8.58648 4.5653 9.04329C4.37608 9.50011 4.32657 10.0028 4.42304 10.4877C4.5195 10.9727 4.7576 11.4181 5.10723 11.7678C5.45687 12.1174 5.90232 12.3555 6.38728 12.452C6.87223 12.5484 7.37489 12.4989 7.83171 12.3097C8.28853 12.1205 8.67897 11.8 8.95368 11.3889C9.22838 10.9778 9.375 10.4945 9.375 10C9.375 9.33696 9.11161 8.70107 8.64277 8.23223C8.17393 7.76339 7.53804 7.5 6.875 7.5ZM6.875 27.5C6.38055 27.5 5.8972 27.6466 5.48608 27.9213C5.07495 28.196 4.75452 28.5865 4.5653 29.0433C4.37608 29.5001 4.32657 30.0028 4.42304 30.4877C4.5195 30.9727 4.7576 31.4181 5.10723 31.7678C5.45687 32.1174 5.90232 32.3555 6.38728 32.452C6.87223 32.5484 7.37489 32.4989 7.83171 32.3097C8.28853 32.1205 8.67897 31.8 8.95368 31.3889C9.22838 30.9778 9.375 30.4945 9.375 30C9.375 29.337 9.11161 28.7011 8.64277 28.2322C8.17393 27.7634 7.53804 27.5 6.875 27.5Z" fill="white"/>
</svg>
