<svg width="40" height="40" viewBox="0 0 40 40" fill="none" xmlns="http://www.w3.org/2000/svg">
<path d="M4.375 10C4.375 9.50272 4.57254 9.02581 4.92417 8.67417C5.27581 8.32254 5.75272 8.125 6.25 8.125H33.75C34.2473 8.125 34.7242 8.32254 35.0758 8.67417C35.4275 9.02581 35.625 9.50272 35.625 10C35.625 10.4973 35.4275 10.9742 35.0758 11.3258C34.7242 11.6775 34.2473 11.875 33.75 11.875H6.25C5.75272 11.875 5.27581 11.6775 4.92417 11.3258C4.57254 10.9742 4.375 10.4973 4.375 10ZM10 14.375C9.50272 14.375 9.02581 14.5725 8.67417 14.9242C8.32254 15.2758 8.125 15.7527 8.125 16.25C8.125 16.7473 8.32254 17.2242 8.67417 17.5758C9.02581 17.9275 9.50272 18.125 10 18.125H30C30.4973 18.125 30.9742 17.9275 31.3258 17.5758C31.6775 17.2242 31.875 16.7473 31.875 16.25C31.875 15.7527 31.6775 15.2758 31.3258 14.9242C30.9742 14.5725 30.4973 14.375 30 14.375H10ZM33.75 20.625H6.25C5.75272 20.625 5.27581 20.8225 4.92417 21.1742C4.57254 21.5258 4.375 22.0027 4.375 22.5C4.375 22.9973 4.57254 23.4742 4.92417 23.8258C5.27581 24.1775 5.75272 24.375 6.25 24.375H33.75C34.2473 24.375 34.7242 24.1775 35.0758 23.8258C35.4275 23.4742 35.625 22.9973 35.625 22.5C35.625 22.0027 35.4275 21.5258 35.0758 21.1742C34.7242 20.8225 34.2473 20.625 33.75 20.625ZM30 26.875H10C9.50272 26.875 9.02581 27.0725 8.67417 27.4242C8.32254 27.7758 8.125 28.2527 8.125 28.75C8.125 29.2473 8.32254 29.7242 8.67417 30.0758C9.02581 30.4275 9.50272 30.625 10 30.625H30C30.4973 30.625 30.9742 30.4275 31.3258 30.0758C31.6775 29.7242 31.875 29.2473 31.875 28.75C31.875 28.2527 31.6775 27.7758 31.3258 27.4242C30.9742 27.0725 30.4973 26.875 30 26.875Z" fill="white"/>
</svg>
