<svg width="40" height="40" viewBox="0 0 40 40" fill="none" xmlns="http://www.w3.org/2000/svg">
<path d="M36.875 17.5V32.5C36.875 32.9973 36.6775 33.4742 36.3258 33.8258C35.9742 34.1775 35.4973 34.375 35 34.375C34.5027 34.375 34.0258 34.1775 33.6742 33.8258C33.3225 33.4742 33.125 32.9973 33.125 32.5V21.0031L32.2906 21.5625C32.0854 21.6992 31.8553 21.7941 31.6135 21.8418C31.3716 21.8895 31.1227 21.8891 30.881 21.8407C30.6393 21.7922 30.4094 21.6966 30.2047 21.5594C29.9999 21.4221 29.8242 21.2458 29.6875 21.0406C29.5508 20.8354 29.4559 20.6053 29.4082 20.3635C29.3605 20.1216 29.3609 19.8727 29.4093 19.631C29.4578 19.3893 29.5534 19.1594 29.6906 18.9547C29.8279 18.7499 30.0042 18.5742 30.2094 18.4375L33.9594 15.9375C34.2419 15.749 34.5704 15.6408 34.9097 15.6244C35.2489 15.608 35.5863 15.6841 35.8857 15.8446C36.185 16.005 36.4352 16.2438 36.6095 16.5353C36.7837 16.8269 36.8755 17.1603 36.875 17.5ZM22.5 6.875C22.0027 6.875 21.5258 7.07254 21.1742 7.42417C20.8225 7.77581 20.625 8.25272 20.625 8.75V16.25H8.125V8.75C8.125 8.25272 7.92746 7.77581 7.57583 7.42417C7.22419 7.07254 6.74728 6.875 6.25 6.875C5.75272 6.875 5.27581 7.07254 4.92417 7.42417C4.57254 7.77581 4.375 8.25272 4.375 8.75V27.5C4.375 27.9973 4.57254 28.4742 4.92417 28.8258C5.27581 29.1775 5.75272 29.375 6.25 29.375C6.74728 29.375 7.22419 29.1775 7.57583 28.8258C7.92746 28.4742 8.125 27.9973 8.125 27.5V20H20.625V27.5C20.625 27.9973 20.8225 28.4742 21.1742 28.8258C21.5258 29.1775 22.0027 29.375 22.5 29.375C22.9973 29.375 23.4742 29.1775 23.8258 28.8258C24.1775 28.4742 24.375 27.9973 24.375 27.5V8.75C24.375 8.25272 24.1775 7.77581 23.8258 7.42417C23.4742 7.07254 22.9973 6.875 22.5 6.875Z" fill="white"/>
</svg>
