<svg width="40" height="40" viewBox="0 0 40 40" fill="none" xmlns="http://www.w3.org/2000/svg">
<path d="M24.375 8.75V27.5C24.375 27.9973 24.1775 28.4742 23.8258 28.8258C23.4742 29.1775 22.9973 29.375 22.5 29.375C22.0027 29.375 21.5258 29.1775 21.1742 28.8258C20.8225 28.4742 20.625 27.9973 20.625 27.5V20H8.125V27.5C8.125 27.9973 7.92746 28.4742 7.57583 28.8258C7.22419 29.1775 6.74728 29.375 6.25 29.375C5.75272 29.375 5.27581 29.1775 4.92417 28.8258C4.57254 28.4742 4.375 27.9973 4.375 27.5V8.75C4.375 8.25272 4.57254 7.77581 4.92417 7.42417C5.27581 7.07254 5.75272 6.875 6.25 6.875C6.74728 6.875 7.22419 7.07254 7.57583 7.42417C7.92746 7.77581 8.125 8.25272 8.125 8.75V16.25H20.625V8.75C20.625 8.25272 20.8225 7.77581 21.1742 7.42417C21.5258 7.07254 22.0027 6.875 22.5 6.875C22.9973 6.875 23.4742 7.07254 23.8258 7.42417C24.1775 7.77581 24.375 8.25272 24.375 8.75ZM37.5 30.625H33.75L38.2406 24.6359C38.7288 23.9881 39.0711 23.2424 39.244 22.45C39.417 21.6575 39.4165 20.837 39.2426 20.0447C39.0687 19.2524 38.7255 18.5071 38.2366 17.8599C37.7477 17.2127 37.1245 16.6789 36.4099 16.2951C35.6953 15.9113 34.9062 15.6866 34.0966 15.6364C33.287 15.5862 32.4762 15.7116 31.7196 16.0042C30.9631 16.2967 30.2788 16.7495 29.7136 17.3313C29.1484 17.9131 28.7158 18.6103 28.4453 19.375C28.2796 19.8439 28.3068 20.3594 28.5212 20.8082C28.7355 21.257 29.1194 21.6022 29.5883 21.768C30.0572 21.9337 30.5727 21.9064 31.0215 21.6921C31.4703 21.4777 31.8155 21.0939 31.9812 20.625C32.0444 20.4442 32.1357 20.2744 32.2516 20.1219C32.3981 19.9204 32.5832 19.7502 32.7962 19.6211C33.0092 19.4921 33.2458 19.4067 33.4922 19.3701C33.7385 19.3334 33.9897 19.3463 34.231 19.4078C34.4724 19.4693 34.6991 19.5783 34.8978 19.7283C35.0966 19.8784 35.2635 20.0666 35.3887 20.2819C35.5139 20.4972 35.595 20.7353 35.6272 20.9822C35.6594 21.2292 35.6421 21.4801 35.5763 21.7203C35.5104 21.9605 35.3974 22.1852 35.2437 22.3813L28.5 31.375C28.2911 31.6536 28.1638 31.9848 28.1326 32.3316C28.1013 32.6784 28.1672 33.0271 28.3229 33.3385C28.4787 33.65 28.718 33.9119 29.0143 34.095C29.3105 34.278 29.6518 34.375 30 34.375H37.5C37.9973 34.375 38.4742 34.1775 38.8258 33.8258C39.1775 33.4742 39.375 32.9973 39.375 32.5C39.375 32.0027 39.1775 31.5258 38.8258 31.1742C38.4742 30.8225 37.9973 30.625 37.5 30.625Z" fill="white"/>
</svg>
