<svg width="40" height="40" viewBox="0 0 40 40" fill="none" xmlns="http://www.w3.org/2000/svg">
<path d="M39.375 28.125C39.3751 29.3666 39.0055 30.5801 38.3131 31.6108C37.6208 32.6414 36.6372 33.4425 35.4877 33.9119C34.3383 34.3812 33.0751 34.4976 31.8592 34.2462C30.6433 33.9947 29.5299 33.3868 28.6609 32.5C28.4819 32.3256 28.3396 32.1172 28.2422 31.887C28.1449 31.6568 28.0946 31.4095 28.0943 31.1595C28.0939 30.9096 28.1435 30.6621 28.2402 30.4317C28.3369 30.2012 28.4786 29.9924 28.6572 29.8175C28.8357 29.6426 29.0474 29.5051 29.2798 29.4132C29.5123 29.3213 29.7607 29.2768 30.0106 29.2823C30.2604 29.2879 30.5067 29.3433 30.7348 29.4453C30.963 29.5473 31.1684 29.694 31.3391 29.8766C31.6277 30.1705 31.9846 30.3886 32.3778 30.5114C32.7711 30.6342 33.1887 30.6579 33.5933 30.5803C33.9979 30.5028 34.3772 30.3265 34.6972 30.067C35.0173 29.8076 35.2682 29.4731 35.4278 29.0932C35.5873 28.7134 35.6506 28.3 35.6118 27.8898C35.573 27.4796 35.4335 27.0854 35.2056 26.7421C34.9777 26.3989 34.6685 26.1173 34.3055 25.9224C33.9425 25.7275 33.537 25.6253 33.125 25.625C32.7821 25.6249 32.4457 25.5308 32.1525 25.3529C31.8593 25.175 31.6206 24.9201 31.4622 24.6159C31.3038 24.3117 31.2319 23.9699 31.2543 23.6277C31.2767 23.2855 31.3924 22.956 31.5891 22.675L33.9062 19.375H30C29.5027 19.375 29.0258 19.1775 28.6742 18.8258C28.3225 18.4742 28.125 17.9973 28.125 17.5C28.125 17.0027 28.3225 16.5258 28.6742 16.1742C29.0258 15.8225 29.5027 15.625 30 15.625H37.5C37.8429 15.6251 38.1793 15.7192 38.4725 15.8971C38.7657 16.075 39.0044 16.3299 39.1628 16.6341C39.3212 16.9383 39.3931 17.2801 39.3707 17.6223C39.3484 17.9645 39.2326 18.294 39.0359 18.575L36.1703 22.6688C37.1417 23.2108 37.9508 24.0022 38.5142 24.9613C39.0775 25.9205 39.3747 27.0126 39.375 28.125ZM22.5 6.875C22.0027 6.875 21.5258 7.07254 21.1742 7.42417C20.8225 7.77581 20.625 8.25272 20.625 8.75V16.25H8.125V8.75C8.125 8.25272 7.92746 7.77581 7.57583 7.42417C7.22419 7.07254 6.74728 6.875 6.25 6.875C5.75272 6.875 5.27581 7.07254 4.92417 7.42417C4.57254 7.77581 4.375 8.25272 4.375 8.75V27.5C4.375 27.9973 4.57254 28.4742 4.92417 28.8258C5.27581 29.1775 5.75272 29.375 6.25 29.375C6.74728 29.375 7.22419 29.1775 7.57583 28.8258C7.92746 28.4742 8.125 27.9973 8.125 27.5V20H20.625V27.5C20.625 27.9973 20.8225 28.4742 21.1742 28.8258C21.5258 29.1775 22.0027 29.375 22.5 29.375C22.9973 29.375 23.4742 29.1775 23.8258 28.8258C24.1775 28.4742 24.375 27.9973 24.375 27.5V8.75C24.375 8.25272 24.1775 7.77581 23.8258 7.42417C23.4742 7.07254 22.9973 6.875 22.5 6.875Z" fill="white"/>
</svg>
