<svg width="40" height="40" viewBox="0 0 40 40" fill="none" xmlns="http://www.w3.org/2000/svg">
<path d="M31.875 8.75C31.875 9.24728 31.6775 9.72419 31.3258 10.0758C30.9742 10.4275 30.4973 10.625 30 10.625H25.1016L18.8516 29.375H22.5C22.9973 29.375 23.4742 29.5725 23.8258 29.9242C24.1775 30.2758 24.375 30.7527 24.375 31.25C24.375 31.7473 24.1775 32.2242 23.8258 32.5758C23.4742 32.9275 22.9973 33.125 22.5 33.125H10C9.50272 33.125 9.02581 32.9275 8.67417 32.5758C8.32254 32.2242 8.125 31.7473 8.125 31.25C8.125 30.7527 8.32254 30.2758 8.67417 29.9242C9.02581 29.5725 9.50272 29.375 10 29.375H14.8984L21.1484 10.625H17.5C17.0027 10.625 16.5258 10.4275 16.1742 10.0758C15.8225 9.72419 15.625 9.24728 15.625 8.75C15.625 8.25272 15.8225 7.77581 16.1742 7.42417C16.5258 7.07254 17.0027 6.875 17.5 6.875H30C30.4973 6.875 30.9742 7.07254 31.3258 7.42417C31.6775 7.77581 31.875 8.25272 31.875 8.75Z" fill="white"/>
</svg>
