<svg width="40" height="40" viewBox="0 0 40 40" fill="none" xmlns="http://www.w3.org/2000/svg">
<path d="M4.375 10C4.375 9.50272 4.57254 9.02581 4.92417 8.67417C5.27581 8.32254 5.75272 8.125 6.25 8.125H33.75C34.2473 8.125 34.7242 8.32254 35.0758 8.67417C35.4275 9.02581 35.625 9.50272 35.625 10C35.625 10.4973 35.4275 10.9742 35.0758 11.3258C34.7242 11.6775 34.2473 11.875 33.75 11.875H6.25C5.75272 11.875 5.27581 11.6775 4.92417 11.3258C4.57254 10.9742 4.375 10.4973 4.375 10ZM6.25 18.125H26.25C26.7473 18.125 27.2242 17.9275 27.5758 17.5758C27.9275 17.2242 28.125 16.7473 28.125 16.25C28.125 15.7527 27.9275 15.2758 27.5758 14.9242C27.2242 14.5725 26.7473 14.375 26.25 14.375H6.25C5.75272 14.375 5.27581 14.5725 4.92417 14.9242C4.57254 15.2758 4.375 15.7527 4.375 16.25C4.375 16.7473 4.57254 17.2242 4.92417 17.5758C5.27581 17.9275 5.75272 18.125 6.25 18.125ZM33.75 20.625H6.25C5.75272 20.625 5.27581 20.8225 4.92417 21.1742C4.57254 21.5258 4.375 22.0027 4.375 22.5C4.375 22.9973 4.57254 23.4742 4.92417 23.8258C5.27581 24.1775 5.75272 24.375 6.25 24.375H33.75C34.2473 24.375 34.7242 24.1775 35.0758 23.8258C35.4275 23.4742 35.625 22.9973 35.625 22.5C35.625 22.0027 35.4275 21.5258 35.0758 21.1742C34.7242 20.8225 34.2473 20.625 33.75 20.625ZM26.25 26.875H6.25C5.75272 26.875 5.27581 27.0725 4.92417 27.4242C4.57254 27.7758 4.375 28.2527 4.375 28.75C4.375 29.2473 4.57254 29.7242 4.92417 30.0758C5.27581 30.4275 5.75272 30.625 6.25 30.625H26.25C26.7473 30.625 27.2242 30.4275 27.5758 30.0758C27.9275 29.7242 28.125 29.2473 28.125 28.75C28.125 28.2527 27.9275 27.7758 27.5758 27.4242C27.2242 27.0725 26.7473 26.875 26.25 26.875Z" fill="white"/>
</svg>
