<svg width="40" height="40" viewBox="0 0 40 40" fill="none" xmlns="http://www.w3.org/2000/svg">
<path d="M35.6252 20C35.6252 20.4973 35.4277 20.9742 35.076 21.3258C34.7244 21.6775 34.2475 21.875 33.7502 21.875H18.1252C17.6279 21.875 17.151 21.6775 16.7994 21.3258C16.4477 20.9742 16.2502 20.4973 16.2502 20C16.2502 19.5027 16.4477 19.0258 16.7994 18.6742C17.151 18.3226 17.6279 18.125 18.1252 18.125H33.7502C34.2475 18.125 34.7244 18.3226 35.076 18.6742C35.4277 19.0258 35.6252 19.5027 35.6252 20ZM18.1252 11.875H33.7502C34.2475 11.875 34.7244 11.6775 35.076 11.3258C35.4277 10.9742 35.6252 10.4973 35.6252 10C35.6252 9.50273 35.4277 9.02581 35.076 8.67418C34.7244 8.32255 34.2475 8.12501 33.7502 8.12501H18.1252C17.6279 8.12501 17.151 8.32255 16.7994 8.67418C16.4477 9.02581 16.2502 9.50273 16.2502 10C16.2502 10.4973 16.4477 10.9742 16.7994 11.3258C17.151 11.6775 17.6279 11.875 18.1252 11.875ZM33.7502 28.125H18.1252C17.6279 28.125 17.151 28.3226 16.7994 28.6742C16.4477 29.0258 16.2502 29.5027 16.2502 30C16.2502 30.4973 16.4477 30.9742 16.7994 31.3258C17.151 31.6775 17.6279 31.875 18.1252 31.875H33.7502C34.2475 31.875 34.7244 31.6775 35.076 31.3258C35.4277 30.9742 35.6252 30.4973 35.6252 30C35.6252 29.5027 35.4277 29.0258 35.076 28.6742C34.7244 28.3226 34.2475 28.125 33.7502 28.125ZM6.8752 9.26719V16.25C6.8752 16.7473 7.07275 17.2242 7.42438 17.5758C7.77601 17.9275 8.25292 18.125 8.7502 18.125C9.24748 18.125 9.7244 17.9275 10.076 17.5758C10.4277 17.2242 10.6252 16.7473 10.6252 16.25V6.25001C10.625 5.93058 10.5433 5.6165 10.3876 5.33754C10.232 5.05859 10.0077 4.82402 9.73601 4.65608C9.4643 4.48813 9.15419 4.39239 8.83509 4.37793C8.51599 4.36347 8.19849 4.43077 7.9127 4.57344L5.4127 5.82344C4.99887 6.04401 4.6827 6.41163 4.52656 6.85382C4.37043 7.29601 4.38566 7.78065 4.56924 8.21216C4.75283 8.64367 5.09145 8.99073 5.51832 9.18487C5.94519 9.37902 6.42931 9.40616 6.8752 9.26094V9.26719ZM13.083 24.4016C13.0027 23.8234 12.8062 23.2675 12.5055 22.7673C12.2047 22.267 11.8059 21.8328 11.333 21.4906C10.3902 20.8064 9.21941 20.513 8.06537 20.672C6.91133 20.831 5.86345 21.43 5.14083 22.3438C4.86352 22.7001 4.64367 23.0976 4.48926 23.5219C4.32647 23.9874 4.35362 24.4983 4.56483 24.9439C4.77604 25.3895 5.1543 25.734 5.61769 25.9027C6.08108 26.0714 6.59228 26.0508 7.04056 25.8453C7.48884 25.6397 7.8381 25.2659 8.0127 24.8047C8.03518 24.7485 8.06571 24.6959 8.10333 24.6484C8.22446 24.5018 8.397 24.4068 8.58574 24.383C8.77447 24.3592 8.96518 24.4083 9.11895 24.5203C9.1866 24.5671 9.24387 24.6273 9.28716 24.6972C9.33045 24.7671 9.35883 24.8452 9.37051 24.9266C9.38099 25.0031 9.37572 25.081 9.35503 25.1554C9.33435 25.2298 9.29867 25.2992 9.2502 25.3594L9.22989 25.3859L4.74864 31.3781C4.54053 31.6568 4.41404 31.9879 4.38331 32.3343C4.35258 32.6808 4.41882 33.029 4.57463 33.3399C4.73043 33.6509 4.96966 33.9124 5.26557 34.0952C5.56147 34.278 5.90239 34.3749 6.2502 34.375H11.2502C11.7475 34.375 12.2244 34.1775 12.576 33.8258C12.9277 33.4742 13.1252 32.9973 13.1252 32.5C13.1252 32.0027 12.9277 31.5258 12.576 31.1742C12.2244 30.8226 11.7475 30.625 11.2502 30.625H10.0002L12.2315 27.6391C12.583 27.184 12.8395 26.6629 12.9857 26.1067C13.132 25.5506 13.1651 24.9707 13.083 24.4016Z" fill="white"/>
</svg>
