<svg width="40" height="40" viewBox="0 0 40 40" fill="none" xmlns="http://www.w3.org/2000/svg">
<path d="M33.125 8.75V13.75C33.125 14.2473 32.9275 14.7242 32.5758 15.0758C32.2242 15.4275 31.7473 15.625 31.25 15.625C30.7527 15.625 30.2758 15.4275 29.9242 15.0758C29.5725 14.7242 29.375 14.2473 29.375 13.75V10.625H21.875V29.375H25C25.4973 29.375 25.9742 29.5725 26.3258 29.9242C26.6775 30.2758 26.875 30.7527 26.875 31.25C26.875 31.7473 26.6775 32.2242 26.3258 32.5758C25.9742 32.9275 25.4973 33.125 25 33.125H15C14.5027 33.125 14.0258 32.9275 13.6742 32.5758C13.3225 32.2242 13.125 31.7473 13.125 31.25C13.125 30.7527 13.3225 30.2758 13.6742 29.9242C14.0258 29.5725 14.5027 29.375 15 29.375H18.125V10.625H10.625V13.75C10.625 14.2473 10.4275 14.7242 10.0758 15.0758C9.72419 15.4275 9.24728 15.625 8.75 15.625C8.25272 15.625 7.77581 15.4275 7.42417 15.0758C7.07254 14.7242 6.875 14.2473 6.875 13.75V8.75C6.875 8.25272 7.07254 7.77581 7.42417 7.42417C7.77581 7.07254 8.25272 6.875 8.75 6.875H31.25C31.7473 6.875 32.2242 7.07254 32.5758 7.42417C32.9275 7.77581 33.125 8.25272 33.125 8.75Z" fill="white"/>
</svg>
