<svg width="40" height="40" viewBox="0 0 40 40" fill="none" xmlns="http://www.w3.org/2000/svg">
<path d="M4.375 10C4.375 9.50272 4.57254 9.02581 4.92417 8.67417C5.27581 8.32254 5.75272 8.125 6.25 8.125H33.75C34.2473 8.125 34.7242 8.32254 35.0758 8.67417C35.4275 9.02581 35.625 9.50272 35.625 10C35.625 10.4973 35.4275 10.9742 35.0758 11.3258C34.7242 11.6775 34.2473 11.875 33.75 11.875H6.25C5.75272 11.875 5.27581 11.6775 4.92417 11.3258C4.57254 10.9742 4.375 10.4973 4.375 10ZM33.75 14.375H13.75C13.2527 14.375 12.7758 14.5725 12.4242 14.9242C12.0725 15.2758 11.875 15.7527 11.875 16.25C11.875 16.7473 12.0725 17.2242 12.4242 17.5758C12.7758 17.9275 13.2527 18.125 13.75 18.125H33.75C34.2473 18.125 34.7242 17.9275 35.0758 17.5758C35.4275 17.2242 35.625 16.7473 35.625 16.25C35.625 15.7527 35.4275 15.2758 35.0758 14.9242C34.7242 14.5725 34.2473 14.375 33.75 14.375ZM33.75 20.625H6.25C5.75272 20.625 5.27581 20.8225 4.92417 21.1742C4.57254 21.5258 4.375 22.0027 4.375 22.5C4.375 22.9973 4.57254 23.4742 4.92417 23.8258C5.27581 24.1775 5.75272 24.375 6.25 24.375H33.75C34.2473 24.375 34.7242 24.1775 35.0758 23.8258C35.4275 23.4742 35.625 22.9973 35.625 22.5C35.625 22.0027 35.4275 21.5258 35.0758 21.1742C34.7242 20.8225 34.2473 20.625 33.75 20.625ZM33.75 26.875H13.75C13.2527 26.875 12.7758 27.0725 12.4242 27.4242C12.0725 27.7758 11.875 28.2527 11.875 28.75C11.875 29.2473 12.0725 29.7242 12.4242 30.0758C12.7758 30.4275 13.2527 30.625 13.75 30.625H33.75C34.2473 30.625 34.7242 30.4275 35.0758 30.0758C35.4275 29.7242 35.625 29.2473 35.625 28.75C35.625 28.2527 35.4275 27.7758 35.0758 27.4242C34.7242 27.0725 34.2473 26.875 33.75 26.875Z" fill="white"/>
</svg>
