<svg width="40" height="40" viewBox="0 0 40 40" fill="none" xmlns="http://www.w3.org/2000/svg">
<path d="M34.7094 10.8078L29.1922 5.29063C28.9028 4.99945 28.5585 4.76859 28.1793 4.61142C27.8 4.45425 27.3933 4.37389 26.9828 4.375H7.5C6.6712 4.375 5.87634 4.70424 5.29029 5.29029C4.70424 5.87634 4.375 6.6712 4.375 7.5V32.5C4.375 33.3288 4.70424 34.1237 5.29029 34.7097C5.87634 35.2958 6.6712 35.625 7.5 35.625H32.5C33.3288 35.625 34.1237 35.2958 34.7097 34.7097C35.2958 34.1237 35.625 33.3288 35.625 32.5V13.0172C35.6261 12.6067 35.5458 12.2 35.3886 11.8207C35.2314 11.4415 35.0006 11.0972 34.7094 10.8078ZM25.625 31.875H14.375V25H25.625V31.875ZM31.875 31.875H29.375V24.375C29.375 23.5462 29.0458 22.7513 28.4597 22.1653C27.8737 21.5792 27.0788 21.25 26.25 21.25H13.75C12.9212 21.25 12.1263 21.5792 11.5403 22.1653C10.9542 22.7513 10.625 23.5462 10.625 24.375V31.875H8.125V8.125H26.7188L31.875 13.2812V31.875ZM25.625 13.125C25.625 13.6223 25.4275 14.0992 25.0758 14.4508C24.7242 14.8025 24.2473 15 23.75 15H15C14.5027 15 14.0258 14.8025 13.6742 14.4508C13.3225 14.0992 13.125 13.6223 13.125 13.125C13.125 12.6277 13.3225 12.1508 13.6742 11.7992C14.0258 11.4475 14.5027 11.25 15 11.25H23.75C24.2473 11.25 24.7242 11.4475 25.0758 11.7992C25.4275 12.1508 25.625 12.6277 25.625 13.125Z" fill="white"/>
</svg>
