<svg width="40" height="40" viewBox="0 0 40 40" fill="none" xmlns="http://www.w3.org/2000/svg">
<path d="M31.875 35C31.875 35.4973 31.6775 35.9742 31.3258 36.3258C30.9742 36.6775 30.4973 36.875 30 36.875H10C9.50272 36.875 9.02581 36.6775 8.67417 36.3258C8.32254 35.9742 8.125 35.4973 8.125 35C8.125 34.5027 8.32254 34.0258 8.67417 33.6742C9.02581 33.3225 9.50272 33.125 10 33.125H30C30.4973 33.125 30.9742 33.3225 31.3258 33.6742C31.6775 34.0258 31.875 34.5027 31.875 35ZM20 30.625C22.817 30.6221 25.5179 29.5018 27.5098 27.5098C29.5018 25.5179 30.6221 22.817 30.625 20V8.75C30.625 8.25272 30.4275 7.77581 30.0758 7.42417C29.7242 7.07254 29.2473 6.875 28.75 6.875C28.2527 6.875 27.7758 7.07254 27.4242 7.42417C27.0725 7.77581 26.875 8.25272 26.875 8.75V20C26.875 21.8234 26.1507 23.572 24.8614 24.8614C23.572 26.1507 21.8234 26.875 20 26.875C18.1766 26.875 16.428 26.1507 15.1386 24.8614C13.8493 23.572 13.125 21.8234 13.125 20V8.75C13.125 8.25272 12.9275 7.77581 12.5758 7.42417C12.2242 7.07254 11.7473 6.875 11.25 6.875C10.7527 6.875 10.2758 7.07254 9.92417 7.42417C9.57254 7.77581 9.375 8.25272 9.375 8.75V20C9.3779 22.817 10.4982 25.5179 12.4902 27.5098C14.4821 29.5018 17.183 30.6221 20 30.625Z" fill="white"/>
</svg>
